<svg width="22" height="22" viewBox="0 0 22 22" fill="none" xmlns="http://www.w3.org/2000/svg">
<path fill-rule="evenodd" clip-rule="evenodd" d="M2.09467 2.09467C3.42914 0.760201 5.42603 0.25 8 0.25H14C16.574 0.25 18.5709 0.760201 19.9053 2.09467C21.2398 3.42914 21.75 5.42603 21.75 8V14C21.75 16.574 21.2398 18.5709 19.9053 19.9053C18.5709 21.2398 16.574 21.75 14 21.75H8C5.42603 21.75 3.42914 21.2398 2.09467 19.9053C0.760201 18.5709 0.25 16.574 0.25 14V8C0.25 5.42603 0.760201 3.42914 2.09467 2.09467ZM3.15533 3.15533C2.2398 4.07086 1.75 5.57397 1.75 8V14C1.75 16.426 2.2398 17.9291 3.15533 18.8447C4.07086 19.7602 5.57397 20.25 8 20.25H14C16.426 20.25 17.9291 19.7602 18.8447 18.8447C19.7602 17.9291 20.25 16.426 20.25 14V8C20.25 5.57397 19.7602 4.07086 18.8447 3.15533C17.9291 2.2398 16.426 1.75 14 1.75H8C5.57397 1.75 4.07086 2.2398 3.15533 3.15533Z" fill="#9197B3"/>
<path fill-rule="evenodd" clip-rule="evenodd" d="M14.7513 7.26197C13.4129 5.9318 11.2465 5.93414 9.92029 7.26034C8.99613 8.18451 8.71452 9.51202 9.0768 10.6894C9.1585 10.955 9.08674 11.2439 8.8903 11.4403L6.32479 14.0058C6.3223 14.0092 6.31693 14.0169 6.30969 14.0298C6.29716 14.052 6.28413 14.0807 6.27338 14.1127C6.26258 14.1448 6.25659 14.1728 6.25405 14.1929C6.25323 14.1994 6.25291 14.204 6.25278 14.2067L6.25339 14.2109L6.41179 15.3989C6.41584 15.418 6.43531 15.4688 6.48723 15.5217C6.5396 15.5749 6.58005 15.5851 6.58285 15.5858C6.58297 15.5858 6.58287 15.5858 6.58285 15.5858L6.58909 15.5866L7.79718 15.7477C7.79954 15.7477 7.80772 15.7478 7.82183 15.7462C7.84398 15.7437 7.87139 15.738 7.90014 15.7286C7.92903 15.7191 7.95194 15.7083 7.96685 15.6996C7.97013 15.6977 7.97261 15.6962 7.97436 15.695C7.97644 15.6929 7.97855 15.6908 7.98066 15.6887L10.5707 13.1087C10.7683 12.9117 11.0589 12.8408 11.3251 12.9246C12.4956 13.2929 13.822 13.0067 14.7488 12.0805C16.0791 10.7412 16.0741 8.57666 14.7513 7.26197ZM15.8087 6.19806C13.887 4.28823 10.7734 4.28589 8.85963 6.19968C7.64136 7.41796 7.20279 9.11585 7.52775 10.6816L5.24964 12.9597L5.2355 12.9742C5.05188 13.168 4.92642 13.4121 4.85155 13.6348C4.77829 13.8527 4.72586 14.1325 4.76733 14.4151L4.92654 15.6091L4.92869 15.624C4.98619 15.9978 5.17755 16.3291 5.4177 16.5734C5.65728 16.817 5.99428 17.0229 6.39341 17.0738L7.58646 17.2328C7.86185 17.2723 8.13922 17.2287 8.36729 17.154C8.59113 17.0806 8.84613 16.9514 9.04535 16.7453L11.3256 14.4738C12.8963 14.807 14.5945 14.3561 15.8103 13.1403L15.8119 13.1387C17.7208 11.218 17.7255 8.10312 15.8087 6.19806Z" fill="#9197B3"/>
<path fill-rule="evenodd" clip-rule="evenodd" d="M8.07275 13.8866C8.36735 13.5954 8.84221 13.5982 9.13339 13.8928L9.98341 14.7528C10.2746 15.0474 10.2718 15.5222 9.97722 15.8134C9.68262 16.1046 9.20776 16.1018 8.91658 15.8072L8.06656 14.9472C7.77538 14.6526 7.77815 14.1777 8.07275 13.8866Z" fill="#9197B3"/>
<path fill-rule="evenodd" clip-rule="evenodd" d="M11.3945 9.70001C11.3945 9.14773 11.8422 8.70001 12.3945 8.70001H12.4035C12.9558 8.70001 13.4035 9.14773 13.4035 9.70001C13.4035 10.2523 12.9558 10.7 12.4035 10.7H12.3945C11.8422 10.7 11.3945 10.2523 11.3945 9.70001Z" fill="#9197B3"/>
</svg>
